<svg version="1.1" id="Layer_1" xmlns="http://www.w3.org/2000/svg" xmlns:xlink="http://www.w3.org/1999/xlink" x="0px" y="0px"
	 width="100%" viewBox="0 0 496 496" enable-background="new 0 0 496 496" xml:space="preserve">
<path fill="#000000" opacity="1.000000" stroke="none" 
	d="
M291.303467,172.002808 
	C291.300720,190.157318 291.315094,207.812332 291.290314,225.467316 
	C291.280334,232.580551 290.554932,233.335373 283.646088,233.340942 
	C261.827118,233.358521 240.008148,233.352310 218.189224,233.320724 
	C212.038147,233.311813 210.870087,232.187622 210.858887,226.037399 
	C210.818832,204.051971 210.815613,182.066345 210.867096,160.080963 
	C210.880829,154.215851 212.132996,152.915344 217.857193,152.901855 
	C240.009125,152.849655 262.161377,152.853790 284.313293,152.914001 
	C290.160309,152.929886 291.251617,154.149002 291.302307,160.010834 
	C291.335419,163.841370 291.306183,167.672455 291.303467,172.002808 
M258.500000,160.984222 
	C247.508514,160.979065 236.516922,160.945312 225.525558,160.979660 
	C219.110687,160.999695 218.907104,161.254227 218.901489,167.852310 
	C218.886353,185.644684 218.952850,203.437729 218.794891,221.228806 
	C218.766434,224.436310 219.579819,225.695175 222.934906,225.677811 
	C241.586700,225.581329 260.239655,225.597900 278.891418,225.708603 
	C282.293854,225.728790 283.671021,224.546005 283.654663,221.073639 
	C283.567596,202.588043 283.564636,184.101486 283.670502,165.616043 
	C283.690277,162.165085 282.422272,160.840683 278.983643,160.924332 
	C272.492462,161.082199 265.994904,160.977722 258.500000,160.984222 
z"/>
<path fill="#000000" opacity="1.000000" stroke="none" 
	d="
M296.098816,362.948364 
	C296.097290,371.863037 291.525970,374.919403 283.159241,372.201355 
	C281.319977,371.603851 280.980469,370.284821 280.981110,368.744507 
	C280.988159,351.413208 281.030243,334.081940 281.058044,316.750641 
	C281.062714,313.844971 282.449890,312.784851 285.391724,312.652008 
	C296.083496,312.169250 296.079102,312.072174 296.059448,322.958191 
	C296.036346,335.752472 296.036346,335.752472 309.047424,335.762665 
	C321.683380,335.772583 321.683411,335.772583 321.671234,323.200348 
	C321.670288,322.200439 321.667328,321.200500 321.667969,320.200592 
	C321.672607,312.713837 321.672821,312.713837 328.967407,312.699402 
	C336.251892,312.684998 336.263397,312.684998 336.264923,319.712921 
	C336.268280,335.378174 336.122101,351.045380 336.342682,366.707458 
	C336.404572,371.103088 335.012848,372.926514 330.627747,372.349915 
	C329.480957,372.199097 328.284576,372.213684 327.133362,372.346344 
	C323.105591,372.810425 321.348114,371.288574 321.607697,367.042084 
	C321.891876,362.393402 321.531952,357.708435 321.709351,353.049042 
	C321.835907,349.725067 320.838409,348.127716 317.207581,348.265717 
	C311.549469,348.480804 305.875336,348.420715 300.212067,348.294006 
	C297.175507,348.226105 295.997284,349.518341 296.086853,352.460052 
	C296.188202,355.789856 296.102234,359.125366 296.098816,362.948364 
z"/>
<path fill="#000000" opacity="1.000000" stroke="none" 
	d="
M166.616425,369.560699 
	C160.620728,366.225281 160.652527,364.186707 166.737076,355.998260 
	C171.431320,358.140594 176.191208,360.466736 181.492706,361.308716 
	C185.381180,361.926270 189.128586,361.806732 192.784607,360.405518 
	C194.709076,359.667969 196.370102,358.474884 196.553696,356.174103 
	C196.743423,353.796570 195.153458,352.358093 193.269180,351.643311 
	C189.862442,350.350983 186.315765,349.425751 182.822586,348.363525 
	C179.802109,347.445068 176.714859,346.710022 173.762863,345.610077 
	C167.543732,343.292877 163.262054,339.222931 162.707687,332.207062 
	C162.106674,324.601196 165.225586,318.635620 171.887421,315.273071 
	C183.048294,309.639618 194.445480,310.793579 205.677139,315.524780 
	C207.936722,316.476562 208.389999,317.940369 207.607269,320.326843 
	C205.094101,327.989197 205.209595,327.929169 197.501999,325.445251 
	C192.579987,323.859070 187.576263,322.610199 182.350784,324.328217 
	C179.806763,325.164703 177.742569,326.397156 177.418991,329.293884 
	C177.064178,332.470062 179.300491,333.760864 181.779846,334.526703 
	C187.496460,336.292511 193.316055,337.733917 199.000916,339.591400 
	C207.264633,342.291443 211.232941,347.315857 211.296158,354.643219 
	C211.358246,361.837494 206.919434,368.396820 199.579712,371.046600 
	C188.594055,375.012634 177.680313,374.087646 166.616425,369.560699 
z"/>
<path fill="#000000" opacity="1.000000" stroke="none" 
	d="
M258.458984,313.155151 
	C263.050476,314.558594 266.798035,316.631348 270.120636,319.518402 
	C272.302155,321.413940 272.767517,323.243927 270.338043,325.279999 
	C269.318481,326.134430 268.311981,327.020416 267.406189,327.991547 
	C265.112244,330.450867 263.247192,330.638702 260.261536,328.358093 
	C249.267838,319.960541 234.599579,324.903412 231.277130,337.818726 
	C229.314270,345.448853 232.149078,353.676483 238.128235,357.703125 
	C244.521744,362.008881 253.290497,361.786224 259.736267,357.280365 
	C261.246979,356.224304 262.456757,353.644043 264.769287,355.086060 
	C267.577087,356.837006 270.200989,359.004425 272.031616,361.816772 
	C272.926178,363.191040 271.567413,364.297577 270.607208,365.186737 
	C261.264893,373.837433 250.107758,375.033264 238.434479,372.160858 
	C227.214691,369.399963 219.569778,362.069183 216.873779,350.784058 
	C211.198822,327.029266 230.699203,307.360474 254.659119,312.280304 
	C255.799530,312.514496 256.935516,312.770233 258.458984,313.155151 
z"/>
<path fill="#000000" opacity="1.000000" stroke="none" 
	d="
M255.125137,121.715431 
	C254.854813,125.167206 255.801270,127.401901 258.161560,129.564880 
	C262.522614,133.561401 262.443329,140.335083 258.499725,144.302795 
	C254.407913,148.419617 247.752701,148.460526 243.717819,144.393661 
	C239.723541,140.367722 239.579575,133.740082 243.994934,129.649216 
	C246.531952,127.298637 247.057968,124.818748 247.021469,121.711388 
	C246.931732,114.069725 246.973572,106.426125 247.013809,98.783562 
	C247.027359,96.208878 247.098587,93.764351 250.831482,93.703827 
	C254.634933,93.642174 255.177170,95.822746 255.156479,98.827484 
	C255.105026,106.303780 255.128204,113.780579 255.125137,121.715431 
M249.697784,135.226166 
	C247.869049,137.078552 248.508713,138.485733 250.649445,139.269562 
	C251.901535,139.728012 253.003204,138.804779 253.256149,137.651810 
	C253.791992,135.209274 252.482910,134.428696 249.697784,135.226166 
z"/>
<path fill="#000000" opacity="1.000000" stroke="none" 
	d="
M195.807861,182.809601 
	C199.164490,183.607162 201.850311,184.665039 203.576019,187.498611 
	C206.392456,192.123077 205.715912,197.636322 201.716171,201.043777 
	C197.722549,204.445969 191.181122,204.397720 187.740356,200.351059 
	C185.505341,197.722488 183.112946,197.039993 179.935471,197.090302 
	C172.281784,197.211487 164.624542,197.095367 156.968750,197.102509 
	C154.106094,197.105164 151.675522,196.924362 151.658203,192.975296 
	C151.639755,188.770157 154.486359,189.129593 157.115601,189.112198 
	C164.937347,189.060440 172.762695,188.975052 180.580109,189.167847 
	C183.272934,189.234253 185.347961,188.923035 187.075577,186.575409 
	C189.068359,183.867416 192.096832,182.883728 195.807861,182.809601 
M192.685623,192.727966 
	C192.926086,195.013474 194.011093,196.107681 196.265610,194.938217 
	C197.373413,194.363602 197.888840,193.153275 197.114960,192.009735 
	C195.721436,189.950546 194.241669,190.164932 192.685623,192.727966 
z"/>
<path fill="#000000" opacity="1.000000" stroke="none" 
	d="
M255.101685,268.076965 
	C255.094528,275.045593 255.072739,281.528473 255.085495,288.011322 
	C255.090790,290.705933 254.318283,292.392365 251.115219,292.406403 
	C247.950180,292.420319 247.060806,290.813049 247.061707,288.090637 
	C247.064117,280.776550 246.981155,273.461609 247.073120,266.148773 
	C247.122162,262.248657 246.780975,258.974030 243.431595,255.935760 
	C239.267151,252.158142 240.016861,245.438431 244.095734,241.647766 
	C248.138290,237.890900 253.915176,237.898468 258.108887,241.666138 
	C262.002930,245.164551 263.018158,252.169113 258.993896,255.512817 
	C254.723877,259.060669 255.094635,263.165100 255.101685,268.076965 
M253.504395,248.911346 
	C252.636093,246.703018 251.214386,246.190781 249.368790,247.750534 
	C248.318008,248.638550 248.345001,249.833481 249.429031,250.706604 
	C251.261063,252.182144 252.716080,251.893616 253.504395,248.911346 
z"/>
<path fill="#000000" opacity="1.000000" stroke="none" 
	d="
M320.457947,189.017487 
	C329.039032,189.030609 337.175171,189.040710 345.311310,189.040146 
	C348.224365,189.039932 350.509491,189.425903 350.380798,193.348511 
	C350.258240,197.082382 347.940582,197.129028 345.330414,197.131622 
	C337.360321,197.139542 329.389435,197.205154 321.420532,197.108688 
	C318.776733,197.076691 316.811432,197.709763 314.912079,199.805862 
	C310.579285,204.587463 304.021729,204.757538 299.929871,200.590988 
	C295.762360,196.347412 295.740662,189.995071 299.879456,185.821014 
	C304.022644,181.642532 310.530426,181.776077 314.998596,186.359818 
	C316.462067,187.861130 317.773346,189.187866 320.457947,189.017487 
M307.514069,190.639252 
	C305.224274,191.046524 304.300018,192.323746 305.440948,194.456772 
	C306.031891,195.561539 307.331329,196.008255 308.420929,195.171326 
	C310.362000,193.680420 310.048889,192.157150 307.514069,190.639252 
z"/>
<path fill="#000000" opacity="1.000000" stroke="none" 
	d="
M209.066956,116.984116 
	C202.417694,111.964340 199.577698,105.786568 200.883804,97.735451 
	C201.286835,95.251083 201.908173,93.699463 204.771317,93.714851 
	C207.362885,93.728798 209.433472,94.704002 208.921082,97.354332 
	C207.358322,105.437340 212.251343,110.127525 217.568832,114.492188 
	C221.836777,117.995377 222.586639,122.383102 222.135147,127.428062 
	C221.890991,130.156158 220.510040,131.163101 217.904572,131.152664 
	C215.372879,131.142517 214.041382,129.831085 214.223862,127.502968 
	C214.572937,123.049438 212.677109,119.837143 209.066956,116.984116 
z"/>
<path fill="#000000" opacity="1.000000" stroke="none" 
	d="
M335.257324,143.679077 
	C339.403076,142.527390 343.242126,143.016281 347.056793,143.065201 
	C349.633484,143.098251 350.353271,144.685638 350.342865,147.053040 
	C350.332489,149.416626 349.545685,151.406433 347.041718,150.915085 
	C338.703979,149.278946 334.002655,154.654633 329.487640,159.930573 
	C325.813873,164.223557 321.359283,164.582901 316.396759,164.159729 
	C314.361877,163.986206 313.315277,162.948608 313.458679,160.939117 
	C313.582886,159.197952 313.280334,156.523132 315.852509,156.826645 
	C322.759338,157.641663 325.713257,152.280518 329.782501,148.604141 
	C331.509186,147.044174 333.187073,145.430176 335.257324,143.679077 
z"/>
<path fill="#000000" opacity="1.000000" stroke="none" 
	d="
M185.972137,156.685425 
	C189.535889,157.205643 189.195419,159.557251 188.923447,161.693939 
	C188.613022,164.132675 186.618683,164.038635 184.758209,164.245224 
	C179.801819,164.795593 175.765610,163.541443 172.423370,159.515167 
	C168.029327,154.221817 163.273758,149.389252 155.229218,150.874588 
	C152.509033,151.376816 151.674515,149.266769 151.673965,146.702698 
	C151.673401,144.130051 152.892853,143.188629 155.273483,143.020691 
	C162.066132,142.541412 168.246277,142.815765 173.086792,149.086639 
	C176.033554,152.904144 179.243439,157.721069 185.972137,156.685425 
z"/>
<path fill="#000000" opacity="1.000000" stroke="none" 
	d="
M291.197449,108.016602 
	C294.179108,105.285782 293.565491,101.995972 293.626556,98.885208 
	C293.676483,96.341599 293.416290,93.791695 297.245239,93.742859 
	C301.243011,93.691879 301.013794,96.292313 301.329163,99.070702 
	C302.077209,105.661064 300.378143,110.924477 294.994720,115.264900 
	C291.086456,118.415985 287.079834,121.887054 287.893127,128.068039 
	C288.223206,130.576675 285.946747,131.155807 283.728607,131.152756 
	C281.578369,131.149796 280.184875,130.326645 280.052307,128.046616 
	C279.778931,123.345718 279.672089,118.763420 283.854462,115.281456 
	C286.396057,113.165504 288.587860,110.629402 291.197449,108.016602 
z"/>
<path fill="#000000" opacity="1.000000" stroke="none" 
	d="
M213.534424,275.606232 
	C209.279022,278.742188 208.729630,282.860535 208.971756,287.380463 
	C209.109268,289.948029 208.936981,292.366821 205.167480,292.416443 
	C201.293655,292.467468 201.101913,290.222107 200.855881,287.282196 
	C200.325058,280.938782 201.618942,275.679504 206.898911,271.358643 
	C211.028107,267.979523 215.536575,264.427948 214.828354,257.827026 
	C214.583221,255.542267 216.950058,255.781387 218.582642,255.712753 
	C220.553467,255.629898 221.759552,256.502411 221.964111,258.528015 
	C222.425186,263.093414 222.548325,267.523254 218.421692,270.825348 
	C216.742477,272.169037 215.315720,273.828217 213.534424,275.606232 
z"/>
<path fill="#000000" opacity="1.000000" stroke="none" 
	d="
M181.334106,222.078979 
	C183.744980,222.089310 185.851151,221.647903 187.632904,222.734879 
	C189.289749,223.745667 189.149170,225.578003 188.966797,227.252853 
	C188.778610,228.981186 187.666534,230.276810 186.014511,230.001022 
	C179.602936,228.930679 175.866364,233.162857 172.843185,237.334473 
	C168.082672,243.903458 161.695724,243.604965 154.963165,243.248627 
	C152.263031,243.105713 151.720093,241.504166 151.728745,239.222778 
	C151.737167,237.001984 152.717224,235.319504 154.925644,235.802795 
	C163.376022,237.652176 167.657211,231.745453 172.476379,226.768723 
	C174.822571,224.345825 177.158508,221.960144 181.334106,222.078979 
z"/>
<path fill="#000000" opacity="1.000000" stroke="none" 
	d="
M280.195374,258.357483 
	C281.138977,254.903046 283.561005,255.720566 285.624695,255.815094 
	C287.300537,255.891846 288.103485,257.264679 287.905426,258.573761 
	C286.960876,264.817139 291.251526,268.298096 295.246063,271.260101 
	C301.678986,276.030182 301.581177,282.379333 301.221100,289.133057 
	C301.075562,291.862244 299.477722,292.361267 297.205200,292.339813 
	C295.039825,292.319366 293.324585,291.530426 293.743591,289.206879 
	C295.145325,281.433105 290.606323,276.667969 285.357178,272.387482 
	C280.916229,268.766022 279.074493,264.398529 280.195374,258.357483 
z"/>
<path fill="#000000" opacity="1.000000" stroke="none" 
	d="
M258.666016,410.253601 
	C256.470520,414.309570 253.123001,414.481079 250.816803,410.907684 
	C248.847275,407.855896 247.117111,404.649628 244.175430,401.559448 
	C244.175430,404.401611 244.214584,407.244568 244.160126,410.085663 
	C244.129471,411.684784 243.715149,413.094696 241.689987,413.134583 
	C239.755936,413.172699 238.993164,411.963043 238.969559,410.293030 
	C238.896774,405.144135 238.888550,399.993530 238.936111,394.844330 
	C238.951218,393.209229 239.646500,391.921478 241.528732,391.790039 
	C243.551865,391.648773 245.531708,391.578033 246.778976,393.702393 
	C248.770660,397.094696 250.831833,400.446259 253.724213,403.632263 
	C253.724213,400.853790 253.702774,398.075104 253.732010,395.296936 
	C253.750412,393.549255 253.937958,391.825928 256.312775,391.892792 
	C258.610016,391.957458 258.905762,393.719116 258.903381,395.416168 
	C258.896606,400.229248 258.758301,405.042175 258.666016,410.253601 
z"/>
<path fill="#000000" opacity="1.000000" stroke="none" 
	d="
M349.527039,236.415634 
	C350.704285,242.993896 350.466309,242.908081 344.239685,243.404022 
	C338.109772,243.892258 333.431824,242.194626 329.400848,237.406296 
	C326.075439,233.456146 322.718842,229.026428 316.271423,229.945023 
	C313.870056,230.287155 313.664124,228.001404 313.600830,226.058502 
	C313.533081,223.977295 314.014252,222.535583 316.437317,222.283234 
	C321.017517,221.806213 325.456421,221.666550 328.712494,225.764374 
	C333.951691,232.357986 340.064514,237.209412 349.527039,236.415634 
z"/>
<path fill="#000000" opacity="1.000000" stroke="none" 
	d="
M187.941956,216.060120 
	C176.849594,217.703537 166.067444,216.740738 155.305115,216.868866 
	C152.537598,216.901840 151.661209,215.265213 151.674896,212.660843 
	C151.688171,210.135422 152.801926,208.960709 155.233109,208.957489 
	C165.189407,208.944290 175.149765,208.786407 185.100327,209.026550 
	C189.939743,209.143341 189.487320,212.474884 187.941956,216.060120 
z"/>
<path fill="#000000" opacity="1.000000" stroke="none" 
	d="
M274.307861,129.583450 
	C268.702118,132.280930 266.918915,131.354828 266.866669,125.924866 
	C266.781830,117.099724 266.835724,108.273155 266.848938,99.447220 
	C266.853271,96.559486 266.599060,93.607506 271.014771,93.722000 
	C275.048279,93.826584 274.981415,96.585701 274.952271,99.274513 
	C274.844116,109.255836 274.637543,119.236107 274.307861,129.583450 
z"/>
<path fill="#000000" opacity="1.000000" stroke="none" 
	d="
M349.919800,210.315186 
	C351.254150,215.638565 349.136200,217.237030 344.332245,217.087524 
	C335.709290,216.819153 327.073181,216.980179 318.442627,216.944672 
	C315.850281,216.934021 313.445953,216.930298 313.445801,213.140762 
	C313.445648,209.341080 315.589142,208.858261 318.587402,208.875656 
	C327.549652,208.927658 336.512512,208.876114 345.475037,208.892471 
	C346.953339,208.895172 348.491119,208.788330 349.919800,210.315186 
z"/>
<path fill="#000000" opacity="1.000000" stroke="none" 
	d="
M274.903290,276.015564 
	C274.896240,280.342316 274.908203,284.173950 274.878021,288.005188 
	C274.857452,290.619781 274.184174,292.462006 270.903900,292.411926 
	C267.801605,292.364532 266.828583,290.915894 266.845062,288.094238 
	C266.899475,278.764801 266.877045,269.434937 266.888428,260.105225 
	C266.891571,257.508698 267.440155,255.617035 270.762970,255.615692 
	C274.034912,255.614365 274.657104,257.384155 274.677948,260.041046 
	C274.718384,265.201080 274.825104,270.360565 274.903290,276.015564 
z"/>
<path fill="#000000" opacity="1.000000" stroke="none" 
	d="
M197.041290,411.612366 
	C193.487045,414.432922 190.831390,413.720215 188.813126,410.099670 
	C187.041199,406.921082 185.181000,403.791718 182.352234,400.662964 
	C182.352234,403.288361 182.472229,405.921204 182.310486,408.536621 
	C182.200684,410.311890 183.131332,413.122070 179.951706,412.987335 
	C176.952377,412.860291 177.794342,410.122375 177.730576,408.324005 
	C177.589478,404.344910 177.610535,400.355591 177.714554,396.374359 
	C177.758545,394.691193 177.049850,392.440186 179.642761,391.893097 
	C182.072266,391.380554 184.217300,391.765656 185.598770,394.252777 
	C187.526917,397.724152 189.598511,401.115845 192.123322,405.418610 
	C192.123322,401.336334 192.050034,398.177734 192.155167,395.025085 
	C192.205429,393.518372 192.531586,391.934937 194.569366,391.883026 
	C196.883850,391.824066 197.238831,393.459869 197.239532,395.235229 
	C197.241623,400.545532 197.191254,405.855865 197.041290,411.612366 
z"/>
<path fill="#000000" opacity="1.000000" stroke="none" 
	d="
M235.303467,119.969849 
	C235.284225,122.790329 235.219803,125.116722 235.256393,127.441521 
	C235.301605,130.314819 233.686630,131.134918 231.123810,131.113495 
	C228.494232,131.091492 227.675751,129.635315 227.679947,127.296104 
	C227.697861,117.328323 227.719513,107.360420 227.686386,97.392746 
	C227.678101,94.898598 228.749542,93.785744 231.270798,93.756927 
	C233.943344,93.726395 235.296829,94.771622 235.285492,97.545761 
	C235.255615,104.855385 235.292694,112.165268 235.303467,119.969849 
z"/>
<path fill="#000000" opacity="1.000000" stroke="none" 
	d="
M185.671402,177.238815 
	C175.734100,177.266342 166.261734,177.259995 156.789429,177.274490 
	C154.150406,177.278534 151.792618,177.212799 151.687805,173.521393 
	C151.581345,169.772110 153.897629,169.672089 156.573776,169.677765 
	C165.879929,169.697525 175.186157,169.671875 184.492355,169.681290 
	C186.520554,169.683334 188.677979,169.609772 188.959442,172.421356 
	C189.184326,174.667587 189.240463,176.892593 185.671402,177.238815 
z"/>
<path fill="#000000" opacity="1.000000" stroke="none" 
	d="
M323.048279,177.289856 
	C320.728149,177.275162 318.900787,177.239166 317.073700,177.249634 
	C314.511780,177.264313 313.599823,175.893784 313.611938,173.474762 
	C313.623871,171.098404 314.411591,169.709808 317.042053,169.717697 
	C327.009644,169.747620 336.977600,169.742203 346.945068,169.685760 
	C349.585754,169.670807 350.312347,171.004044 350.340851,173.413574 
	C350.373718,176.190308 349.170258,177.301880 346.467377,177.285675 
	C338.825592,177.239853 331.183258,177.281860 323.048279,177.289856 
z"/>
<path fill="#000000" opacity="1.000000" stroke="none" 
	d="
M214.336456,391.640930 
	C216.383331,391.947144 218.318344,392.037109 217.890656,394.481537 
	C217.505219,396.684387 215.854218,396.506195 214.043823,396.425537 
	C207.667847,396.141602 204.392227,400.258026 206.657715,405.740021 
	C207.826706,408.568665 209.803635,409.851929 212.540649,407.627472 
	C212.719208,406.003754 211.839371,405.587463 210.885498,405.163544 
	C209.573578,404.580566 209.422928,403.458893 209.753204,402.234375 
	C210.070541,401.057800 211.105957,400.701996 212.093307,400.814636 
	C214.458221,401.084473 217.742554,399.170044 218.685608,403.172638 
	C219.920135,408.412354 217.943512,412.850464 214.252487,413.376862 
	C209.823196,414.008514 205.420319,414.015869 202.583130,409.845947 
	C199.600327,405.462006 199.863037,400.603851 202.225754,396.123444 
	C204.687927,391.454468 209.245346,391.082916 214.336456,391.640930 
z"/>
<path fill="#000000" opacity="1.000000" stroke="none" 
	d="
M227.657196,267.021606 
	C227.668243,264.203583 227.745834,261.879944 227.671753,259.561157 
	C227.586899,256.905243 228.592224,255.624985 231.434052,255.654572 
	C234.262436,255.684006 235.255676,257.043243 235.251205,259.636627 
	C235.234634,269.254150 235.223389,278.871857 235.265915,288.489227 
	C235.277771,291.169525 234.189178,292.376770 231.404602,292.371674 
	C228.568359,292.366455 227.635223,291.052948 227.657578,288.411957 
	C227.716568,281.447845 227.664551,274.482849 227.657196,267.021606 
z"/>
<path fill="#000000" opacity="1.000000" stroke="none" 
	d="
M289.565857,412.262695 
	C288.307587,406.455048 288.989471,400.972992 288.915222,395.509644 
	C288.878754,392.822845 290.240814,391.553680 292.942535,391.714355 
	C295.090485,391.842072 297.309570,391.628326 299.375671,392.098969 
	C303.493317,393.036957 306.039978,397.011139 303.839203,400.406097 
	C301.183655,404.502563 302.654388,407.057617 304.983337,410.063110 
	C305.453613,410.669983 305.558899,411.559692 305.898163,412.501312 
	C299.042419,415.549713 299.368103,407.331146 295.615662,406.098969 
	C292.623047,407.554871 297.036102,415.127808 289.565857,412.262695 
M295.841156,396.602448 
	C294.308746,397.547089 293.855072,398.863434 295.188660,400.147064 
	C296.122620,401.046082 297.446045,400.672913 298.102142,399.580994 
	C299.147186,397.841766 298.237640,396.893341 295.841156,396.602448 
z"/>
<path fill="#000000" opacity="1.000000" stroke="none" 
	d="
M323.061951,408.995789 
	C320.606659,413.267487 320.606659,413.267487 315.641022,412.490112 
	C317.953278,406.054779 320.030365,399.677368 322.570343,393.489990 
	C323.629395,390.910034 328.403687,390.834167 329.546936,393.401733 
	C332.279663,399.538788 334.602264,405.868500 336.278381,412.390930 
	C333.751923,413.561829 331.641937,413.914673 330.686829,411.543549 
	C329.156036,407.743225 326.434570,407.983521 323.061951,408.995789 
z"/>
<path fill="#000000" opacity="1.000000" stroke="none" 
	d="
M229.872284,391.692688 
	C231.164719,391.708374 231.997375,391.710999 232.828857,391.743622 
	C234.288010,391.800812 235.509262,392.203583 235.509384,393.974579 
	C235.509521,395.710297 234.343216,396.096619 232.870789,396.287781 
	C231.356598,396.484375 229.416794,395.653625 228.537354,397.838837 
	C228.947235,400.299835 230.998901,399.524506 232.476639,399.775330 
	C233.918594,400.020050 235.102051,400.435577 235.002182,402.201538 
	C234.919144,403.670380 233.882736,404.052246 232.635269,404.261688 
	C230.989365,404.537994 228.458725,403.683258 228.480545,406.523773 
	C228.501892,409.304108 231.008102,408.559021 232.668793,408.795685 
	C234.100967,408.999817 235.336212,409.300079 235.375305,411.056885 
	C235.424637,413.273834 233.789734,413.168457 232.268768,413.309479 
	C223.040161,414.164978 222.687607,413.857269 222.685486,404.691467 
	C222.684998,402.527191 222.666046,400.362823 222.677338,398.198608 
	C222.710754,391.792053 222.715012,391.792084 229.872284,391.692688 
z"/>
<path fill="#000000" opacity="1.000000" stroke="none" 
	d="
M279.787598,404.530090 
	C276.928040,408.005646 279.142029,408.526001 281.897461,408.768097 
	C283.378296,408.898193 285.099335,408.899750 285.108063,411.008301 
	C285.118500,413.537537 283.080750,413.182037 281.501526,413.269653 
	C279.849487,413.361298 278.185669,413.230438 276.531921,413.305267 
	C273.770233,413.430115 272.661041,412.108582 272.703705,409.419373 
	C272.774658,404.946045 272.831757,400.466827 272.679291,395.997467 
	C272.568726,392.757263 273.948883,391.410583 277.101776,391.699066 
	C277.430115,391.729126 277.787018,391.617554 278.092041,391.705536 
	C280.522369,392.406952 284.655670,389.863525 285.148834,393.890564 
	C285.622711,397.760040 281.308563,395.453064 279.467590,396.634064 
	C279.082611,396.881042 278.837341,397.345795 278.586121,397.641449 
	C278.559692,399.029144 279.341980,399.430878 280.435120,399.650024 
	C282.197174,400.003265 285.043243,399.059174 284.875366,402.160553 
	C284.714539,405.131256 281.882904,403.943665 279.787598,404.530090 
z"/>
<path fill="#000000" opacity="1.000000" stroke="none" 
	d="
M307.359802,247.010376 
	C303.989410,251.403336 299.665833,250.059250 295.631744,249.681717 
	C293.709534,249.501831 293.672394,247.699814 293.656616,246.161224 
	C293.639069,244.452499 293.621918,242.532837 295.818726,242.279068 
	C298.598206,241.957977 299.830261,240.634903 300.206818,237.875137 
	C300.541901,235.419327 302.734100,235.710632 304.574890,235.692688 
	C306.617767,235.672775 307.678864,236.731567 307.842529,238.674713 
	C308.066071,241.329407 308.233795,243.994446 307.359802,247.010376 
z"/>
<path fill="#000000" opacity="1.000000" stroke="none" 
	d="
M194.644135,240.073578 
	C194.603577,237.362274 195.172913,235.731796 197.910034,235.689606 
	C200.370667,235.651672 202.220917,236.140076 202.274216,239.085175 
	C202.312988,241.226196 203.687866,241.888702 205.542191,242.016266 
	C208.369568,242.210770 209.062103,244.019012 208.968292,246.482727 
	C208.859772,249.332977 207.087875,249.914780 204.633865,250.073029 
	C195.936813,250.633896 194.659821,249.469360 194.644135,240.073578 
z"/>
<path fill="#000000" opacity="1.000000" stroke="none" 
	d="
M308.005554,144.119080 
	C308.083466,148.053940 307.715912,152.644882 303.151398,150.624695 
	C299.328094,148.932541 296.291473,144.672211 293.864319,140.928146 
	C292.521881,138.857330 294.297302,136.801926 297.441559,136.577744 
	C305.894745,135.975006 307.282654,136.784515 308.005554,144.119080 
z"/>
<path fill="#000000" opacity="1.000000" stroke="none" 
	d="
M194.668671,141.262512 
	C196.147766,137.126511 205.269150,134.783310 207.991272,137.436111 
	C209.163483,138.578445 209.101654,140.126297 208.882904,141.634109 
	C208.631622,143.366241 207.626846,144.270340 205.869171,144.266006 
	C203.820694,144.260971 202.266998,144.783401 202.279221,147.263535 
	C202.294937,150.451431 200.249832,151.086655 197.627945,150.894333 
	C194.550186,150.668579 194.626175,148.399323 194.639603,146.185318 
	C194.648621,144.698105 194.645706,143.210815 194.668671,141.262512 
z"/>
<path fill="#000000" opacity="1.000000" stroke="none" 
	d="
M314.045654,399.126953 
	C314.013062,403.088470 314.027191,406.571777 313.928619,410.051910 
	C313.876404,411.895050 313.198425,413.295715 310.955017,413.130859 
	C308.881683,412.978516 308.710114,411.480682 308.699799,409.931366 
	C308.668915,405.288116 308.634125,400.643799 308.704346,396.001465 
	C308.730530,394.273041 308.303925,392.063416 311.084106,391.931549 
	C313.729187,391.806152 313.807983,393.831116 313.985565,395.664490 
	C314.081177,396.651459 314.030304,397.652649 314.045654,399.126953 
z"/>
<path fill="#000000" opacity="1.000000" stroke="none" 
	d="
M267.562988,412.366638 
	C264.286987,413.835052 262.819427,412.727295 262.805054,409.612671 
	C262.782928,404.811218 262.784668,400.009460 262.810730,395.208008 
	C262.820557,393.396149 263.308807,391.877930 265.538513,391.858643 
	C267.788574,391.839142 268.295166,393.352417 268.253265,395.172791 
	C268.124054,400.786072 268.799164,406.419128 267.562988,412.366638 
z"/>
<path fill="#000000" opacity="1.000000" stroke="none" 
	d="
M167.873840,410.659637 
	C167.802155,405.238831 167.779602,400.284210 167.773865,395.329620 
	C167.771484,393.285126 168.323074,391.726379 170.836624,391.846954 
	C173.224518,391.961517 173.263443,393.685425 173.275391,395.373138 
	C173.309311,400.162750 173.320511,404.952942 173.280060,409.742401 
	C173.269348,411.011993 173.497498,412.573792 171.787857,413.012390 
	C170.055862,413.456726 168.457382,413.300201 167.873840,410.659637 
z"/>
<path fill="#000000" opacity="1.000000" stroke="none" 
	d="
M305.580322,222.285614 
	C308.749939,224.073532 308.400513,226.637421 307.203217,228.828049 
	C306.087921,230.868515 303.644012,230.484756 301.839600,229.854309 
	C299.449097,229.019043 299.767700,226.701828 300.135406,224.783356 
	C300.680939,221.936996 302.991730,222.070847 305.580322,222.285614 
z"/>
<path fill="#000000" opacity="1.000000" stroke="none" 
	d="
M307.779297,214.592575 
	C305.926086,217.751373 303.344025,217.353241 301.206879,216.047852 
	C299.246704,214.850571 299.677338,212.472839 300.507202,210.643631 
	C301.435394,208.597717 303.511353,208.791458 305.287598,209.117630 
	C308.210999,209.654434 307.933075,212.026611 307.779297,214.592575 
z"/>
<path fill="#000000" opacity="1.000000" stroke="none" 
	d="
M288.019806,245.193893 
	C288.226227,248.409897 287.167480,250.090546 284.098267,250.015747 
	C282.101562,249.967087 280.379242,249.515884 280.138763,247.163895 
	C279.951385,245.331116 279.791321,243.195786 281.960510,242.488815 
	C284.385315,241.698578 287.001923,241.350250 288.019806,245.193893 
z"/>
<path fill="#000000" opacity="1.000000" stroke="none" 
	d="
M221.891357,244.389557 
	C222.064880,246.748184 222.466934,248.910919 219.964462,249.717468 
	C218.384491,250.226700 216.615784,250.339767 215.278915,249.191132 
	C213.875153,247.984985 214.049896,246.212753 214.499680,244.608795 
	C215.373581,241.492477 218.247269,241.269348 221.891357,244.389557 
z"/>
<path fill="#000000" opacity="1.000000" stroke="none" 
	d="
M274.766296,246.089874 
	C274.715027,249.678986 272.737335,250.260452 270.085114,249.963470 
	C267.898987,249.718689 266.915802,248.480530 266.917145,246.324646 
	C266.918518,244.140823 267.423187,242.394669 270.026337,242.128159 
	C272.728088,241.851547 274.582031,242.634186 274.766296,246.089874 
z"/>
<path fill="#000000" opacity="1.000000" stroke="none" 
	d="
M288.051910,140.060516 
	C288.257507,143.682709 286.382050,144.365662 283.672058,144.291321 
	C281.521606,144.232330 280.150360,143.465149 280.108398,141.175064 
	C280.075256,139.369064 279.893555,137.223755 282.325775,136.878540 
	C284.681641,136.544174 287.508636,135.866562 288.051910,140.060516 
z"/>
<path fill="#000000" opacity="1.000000" stroke="none" 
	d="
M303.940125,164.174225 
	C300.176086,164.188995 299.824768,162.012482 300.040649,159.434402 
	C300.245911,156.982605 301.935516,156.644791 303.940002,156.644379 
	C305.925995,156.643982 307.671692,156.912949 307.862823,159.385330 
	C308.061157,161.950378 307.663879,164.130981 303.940125,164.174225 
z"/>
<path fill="#000000" opacity="1.000000" stroke="none" 
	d="
M216.361374,136.851166 
	C220.154434,136.310928 222.410889,137.116516 222.060867,141.176514 
	C221.758148,144.687958 219.205475,144.445541 216.912369,144.174072 
	C213.663147,143.789429 213.322540,140.959229 216.361374,136.851166 
z"/>
<path fill="#000000" opacity="1.000000" stroke="none" 
	d="
M300.733826,176.298492 
	C299.920258,173.379730 298.802582,170.456467 302.862305,169.799637 
	C305.239532,169.415009 307.650665,169.500748 307.861938,172.916519 
	C308.061951,176.150650 306.530365,177.533707 303.388306,177.210403 
	C302.584290,177.127670 301.802399,176.829788 300.733826,176.298492 
z"/>
<path fill="#000000" opacity="1.000000" stroke="none" 
	d="
M234.805374,248.569397 
	C231.890686,250.444885 229.100815,251.102936 227.912506,247.385986 
	C227.253357,245.324188 227.028076,242.507645 230.536484,242.138168 
	C233.502487,241.825821 235.413971,242.858643 235.210297,246.226242 
	C235.170517,246.883926 235.072693,247.538101 234.805374,248.569397 
z"/>
<path fill="#000000" opacity="1.000000" stroke="none" 
	d="
M202.056763,214.613708 
	C200.071808,217.478058 197.580109,217.505737 195.443512,215.877975 
	C193.900513,214.702438 194.324036,212.398468 194.945267,210.740280 
	C195.745026,208.605545 197.867172,208.827011 199.661774,209.122269 
	C202.735718,209.628067 202.212982,212.061478 202.056763,214.613708 
z"/>
<path fill="#000000" opacity="1.000000" stroke="none" 
	d="
M201.885635,162.603012 
	C201.009323,163.373138 200.326508,163.990036 199.591324,164.060501 
	C197.097733,164.299469 194.405853,164.609009 194.298859,160.855743 
	C194.231140,158.480530 194.778168,156.769882 197.753159,156.622665 
	C201.223373,156.450943 202.651810,157.816574 202.188324,161.224396 
	C202.144119,161.549423 202.099518,161.874374 201.885635,162.603012 
z"/>
<path fill="#000000" opacity="1.000000" stroke="none" 
	d="
M198.029709,230.125854 
	C193.842560,229.643219 194.482742,226.860092 194.828812,224.499893 
	C195.181808,222.092331 197.293121,222.221130 199.083115,222.265335 
	C201.279892,222.319580 202.195938,223.575058 202.254578,225.760162 
	C202.327255,228.469116 201.588730,230.285492 198.029709,230.125854 
z"/>
<path fill="#000000" opacity="1.000000" stroke="none" 
	d="
M274.406677,138.441132 
	C274.785034,140.823654 275.253662,143.034134 272.880310,143.990219 
	C271.365112,144.600601 269.495728,144.676727 268.069366,143.661911 
	C266.501495,142.546402 266.465515,140.564911 267.094971,139.097870 
	C268.797607,135.129669 271.550842,136.263855 274.406677,138.441132 
z"/>
<path fill="#000000" opacity="1.000000" stroke="none" 
	d="
M200.728851,176.845901 
	C198.192474,177.010162 195.392410,178.363739 194.663513,175.009323 
	C194.307953,173.373032 193.923111,171.102097 195.921310,170.118744 
	C197.538010,169.323120 199.805817,169.093750 201.110992,170.390411 
	C202.929016,172.196579 202.676895,174.564636 200.728851,176.845901 
z"/>
<path fill="#000000" opacity="1.000000" stroke="none" 
	d="
M235.125076,139.158325 
	C235.272858,141.848343 235.367218,144.140533 232.176468,144.195511 
	C230.563324,144.223297 228.555084,144.630844 228.002060,142.499985 
	C227.520157,140.643188 226.874023,138.174469 229.100647,137.175278 
	C231.125351,136.266708 233.701279,135.806732 235.125076,139.158325 
z"/>
<path fill="#000000" opacity="1.000000" stroke="none" 
	d="
M311.263184,386.111816 
	C313.060608,384.983124 314.586456,384.544861 316.473572,385.936340 
	C315.076996,388.982666 313.092010,390.828461 309.508026,390.388672 
	C308.591614,388.318634 310.190796,387.498901 311.263184,386.111816 
z"/>
<path fill="#000000" opacity="1.000000" stroke="none" 
	d="
M264.966309,190.103745 
	C264.954865,194.082932 264.963043,197.582108 264.932434,201.080948 
	C264.899200,204.883682 263.113281,207.016312 259.157013,207.015579 
	C253.825378,207.014587 248.493683,207.021515 243.162109,207.003235 
	C239.227905,206.989746 237.469940,205.066467 237.593948,201.066925 
	C237.759109,195.739639 237.745575,190.401672 237.625732,185.072403 
	C237.540543,181.284378 239.149231,179.536240 242.964218,179.600784 
	C248.128189,179.688141 253.304443,179.821198 258.457306,179.567139 
	C263.309387,179.327896 265.139740,181.604294 264.974854,186.124603 
	C264.932343,187.289459 264.968719,188.457184 264.966309,190.103745 
M245.279221,189.972336 
	C245.268250,191.796021 245.267258,193.619843 245.243774,195.443375 
	C245.215439,197.642181 246.205811,199.083984 248.476883,198.861832 
	C251.246140,198.590912 255.076431,200.541168 256.452454,196.981934 
	C257.510437,194.245407 258.315369,189.779083 255.703110,188.178558 
	C252.866272,186.440414 248.530243,185.619766 245.279221,189.972336 
z"/>
<path fill="#000000" opacity="1.000000" stroke="none" 
	d="
M254.538818,213.746185 
	C255.079620,216.209885 255.780396,218.560852 253.387299,219.810349 
	C251.789169,220.644775 249.704132,220.704605 248.238663,219.462784 
	C246.713989,218.170776 246.639450,216.049026 247.421997,214.417938 
	C249.096512,210.927673 251.739716,211.779465 254.538818,213.746185 
z"/>
<path fill="#000000" opacity="1.000000" stroke="none" 
	d="
M224.164124,193.052582 
	C224.314774,189.362259 226.521057,189.014969 229.073456,189.260223 
	C231.456009,189.489182 231.931702,191.193237 231.956131,193.191910 
	C231.981567,195.275238 231.298401,196.774872 228.936111,196.960663 
	C226.322388,197.166214 224.203201,196.731369 224.164124,193.052582 
z"/>
<path fill="#000000" opacity="1.000000" stroke="none" 
	d="
M235.610962,212.639572 
	C237.929276,212.055099 240.071686,211.539536 241.200638,213.720520 
	C242.118256,215.493271 242.266006,217.632782 240.866898,219.295166 
	C239.679581,220.705872 237.654938,220.663574 236.289459,220.026642 
	C232.570602,218.291962 233.526138,215.525421 235.610962,212.639572 
z"/>
<path fill="#000000" opacity="1.000000" stroke="none" 
	d="
M277.588379,182.371033 
	C274.769836,184.145416 272.077789,185.226669 270.381866,181.642288 
	C269.683075,180.165421 269.773804,178.278229 271.086700,177.000168 
	C272.552826,175.572937 274.514557,175.682205 276.200653,176.420013 
	C278.807343,177.560623 278.114197,179.898788 277.588379,182.371033 
z"/>
<path fill="#000000" opacity="1.000000" stroke="none" 
	d="
M224.350677,178.411682 
	C225.887589,175.203735 228.325989,175.558060 230.439865,176.608978 
	C232.632431,177.699020 232.266708,180.068634 231.640732,181.949310 
	C230.898560,184.179062 228.762039,183.904922 226.963013,183.707169 
	C223.861313,183.366241 224.110794,181.019287 224.350677,178.411682 
z"/>
<path fill="#000000" opacity="1.000000" stroke="none" 
	d="
M271.031067,190.090439 
	C273.594818,188.960098 276.004364,188.573349 277.545074,190.844833 
	C278.567505,192.352219 278.514374,194.403107 277.232086,195.951584 
	C276.035370,197.396713 274.266937,197.212982 272.622955,196.948318 
	C270.536133,196.612411 270.098480,195.018143 270.169739,193.255173 
	C270.208771,192.289047 270.550690,191.335175 271.031067,190.090439 
z"/>
<path fill="#000000" opacity="1.000000" stroke="none" 
	d="
M262.632751,220.124741 
	C259.650543,216.489075 259.989349,212.989212 263.036407,212.316498 
	C264.666534,211.956604 266.458069,211.947403 267.560913,213.424286 
	C268.602631,214.819366 268.411072,216.625000 267.969971,218.186707 
	C267.232483,220.797882 264.932251,220.115891 262.632751,220.124741 
z"/>
<path fill="#000000" opacity="1.000000" stroke="none" 
	d="
M250.226624,174.024353 
	C246.317413,173.047531 246.731720,170.356049 247.504288,167.970657 
	C248.280014,165.575409 250.595337,166.671982 252.295944,166.656906 
	C254.540451,166.636993 254.931671,168.268387 255.006866,170.074875 
	C255.134933,173.151337 253.459320,174.235458 250.226624,174.024353 
z"/>
<path fill="#000000" opacity="1.000000" stroke="none" 
	d="
M224.197174,206.830322 
	C224.041763,203.270081 225.844330,202.542877 228.595810,202.639938 
	C230.910065,202.721558 231.879913,203.861328 231.947388,206.002625 
	C232.000412,207.684875 232.038254,209.595551 229.942215,209.979370 
	C227.533203,210.420532 224.795364,210.931381 224.197174,206.830322 
z"/>
<path fill="#000000" opacity="1.000000" stroke="none" 
	d="
M273.256409,210.199799 
	C269.323120,209.250687 269.802979,206.621857 270.656708,204.299713 
	C271.555084,201.856140 273.946777,202.667892 275.801727,202.834229 
	C278.004120,203.031693 278.044739,204.847031 278.112518,206.525009 
	C278.239838,209.675064 276.372467,210.442200 273.256409,210.199799 
z"/>
<path fill="#000000" opacity="1.000000" stroke="none" 
	d="
M235.427429,173.632370 
	C233.524307,170.934311 232.856247,168.384918 236.091217,166.819244 
	C237.472702,166.150589 239.601303,165.900589 240.744370,167.339752 
	C241.911163,168.808792 241.868835,170.975754 241.102432,172.575897 
	C240.014252,174.847855 237.713226,174.006302 235.427429,173.632370 
z"/>
<path fill="#000000" opacity="1.000000" stroke="none" 
	d="
M267.247131,173.210266 
	C264.531433,174.143555 261.915588,175.113403 260.807220,171.794556 
	C260.312958,170.314560 260.113342,168.290283 261.663025,167.239151 
	C263.200073,166.196564 265.337280,166.101105 266.833099,167.129471 
	C268.949951,168.584778 268.311188,170.854218 267.247131,173.210266 
z"/>
</svg>